<mxfile host="app.diagrams.net" modified="2021-07-21T06:43:43.518Z" agent="5.0 (X11)" etag="2qZpWqw0s4K4cjUi5sg8" version="14.9.0" type="github">
  <diagram id="xDiLJdGuWP4I8bo90Ma0" name="Page-1">
    <mxGraphModel dx="796" dy="481" grid="1" gridSize="10" guides="1" tooltips="1" connect="1" arrows="1" fold="1" page="1" pageScale="1" pageWidth="850" pageHeight="1100" math="0" shadow="0">
      <root>
        <mxCell id="0" />
        <mxCell id="1" parent="0" />
        <mxCell id="uGtN5vHFTZIPUSlZYyu9-1" value="&lt;font style=&quot;font-size: 20px&quot;&gt;начало&lt;/font&gt;" style="ellipse;whiteSpace=wrap;html=1;" vertex="1" parent="1">
          <mxGeometry x="330" y="30" width="120" height="80" as="geometry" />
        </mxCell>
        <mxCell id="uGtN5vHFTZIPUSlZYyu9-2" value="" style="endArrow=classic;html=1;exitX=0.5;exitY=1;exitDx=0;exitDy=0;" edge="1" parent="1" source="uGtN5vHFTZIPUSlZYyu9-1" target="uGtN5vHFTZIPUSlZYyu9-3">
          <mxGeometry width="50" height="50" relative="1" as="geometry">
            <mxPoint x="380" y="280" as="sourcePoint" />
            <mxPoint x="390" y="180" as="targetPoint" />
          </mxGeometry>
        </mxCell>
        <mxCell id="uGtN5vHFTZIPUSlZYyu9-5" value="" style="edgeStyle=orthogonalEdgeStyle;rounded=0;orthogonalLoop=1;jettySize=auto;html=1;" edge="1" parent="1" source="uGtN5vHFTZIPUSlZYyu9-3" target="uGtN5vHFTZIPUSlZYyu9-4">
          <mxGeometry relative="1" as="geometry" />
        </mxCell>
        <mxCell id="uGtN5vHFTZIPUSlZYyu9-3" value="&lt;font style=&quot;font-size: 20px&quot;&gt;a,b,c=1&lt;/font&gt;" style="rounded=0;whiteSpace=wrap;html=1;" vertex="1" parent="1">
          <mxGeometry x="330" y="150" width="120" height="60" as="geometry" />
        </mxCell>
        <mxCell id="uGtN5vHFTZIPUSlZYyu9-7" value="" style="edgeStyle=orthogonalEdgeStyle;rounded=0;orthogonalLoop=1;jettySize=auto;html=1;" edge="1" parent="1" source="uGtN5vHFTZIPUSlZYyu9-4" target="uGtN5vHFTZIPUSlZYyu9-6">
          <mxGeometry relative="1" as="geometry" />
        </mxCell>
        <mxCell id="uGtN5vHFTZIPUSlZYyu9-4" value="&lt;font style=&quot;font-size: 20px&quot;&gt;Ввод(а)&lt;/font&gt;" style="shape=parallelogram;perimeter=parallelogramPerimeter;whiteSpace=wrap;html=1;fixedSize=1;rounded=0;" vertex="1" parent="1">
          <mxGeometry x="330" y="290" width="120" height="60" as="geometry" />
        </mxCell>
        <mxCell id="uGtN5vHFTZIPUSlZYyu9-9" value="" style="edgeStyle=orthogonalEdgeStyle;rounded=0;orthogonalLoop=1;jettySize=auto;html=1;" edge="1" parent="1" source="uGtN5vHFTZIPUSlZYyu9-6" target="uGtN5vHFTZIPUSlZYyu9-8">
          <mxGeometry relative="1" as="geometry" />
        </mxCell>
        <mxCell id="uGtN5vHFTZIPUSlZYyu9-6" value="&lt;font style=&quot;font-size: 20px&quot;&gt;Ввод(b)&lt;/font&gt;" style="shape=parallelogram;perimeter=parallelogramPerimeter;whiteSpace=wrap;html=1;fixedSize=1;rounded=0;" vertex="1" parent="1">
          <mxGeometry x="330" y="430" width="120" height="60" as="geometry" />
        </mxCell>
        <mxCell id="uGtN5vHFTZIPUSlZYyu9-11" value="" style="edgeStyle=orthogonalEdgeStyle;rounded=0;orthogonalLoop=1;jettySize=auto;html=1;" edge="1" parent="1" source="uGtN5vHFTZIPUSlZYyu9-8" target="uGtN5vHFTZIPUSlZYyu9-10">
          <mxGeometry relative="1" as="geometry" />
        </mxCell>
        <mxCell id="uGtN5vHFTZIPUSlZYyu9-8" value="&lt;font style=&quot;font-size: 20px&quot;&gt;i=0&lt;/font&gt;" style="whiteSpace=wrap;html=1;rounded=0;" vertex="1" parent="1">
          <mxGeometry x="330" y="570" width="120" height="60" as="geometry" />
        </mxCell>
        <mxCell id="uGtN5vHFTZIPUSlZYyu9-13" value="" style="edgeStyle=orthogonalEdgeStyle;rounded=0;orthogonalLoop=1;jettySize=auto;html=1;" edge="1" parent="1" source="uGtN5vHFTZIPUSlZYyu9-10" target="uGtN5vHFTZIPUSlZYyu9-12">
          <mxGeometry relative="1" as="geometry" />
        </mxCell>
        <mxCell id="uGtN5vHFTZIPUSlZYyu9-10" value="&lt;font style=&quot;font-size: 20px&quot;&gt;i=i+1&lt;/font&gt;" style="whiteSpace=wrap;html=1;rounded=0;" vertex="1" parent="1">
          <mxGeometry x="330" y="710" width="120" height="60" as="geometry" />
        </mxCell>
        <mxCell id="uGtN5vHFTZIPUSlZYyu9-15" value="" style="edgeStyle=orthogonalEdgeStyle;rounded=0;orthogonalLoop=1;jettySize=auto;html=1;" edge="1" parent="1" source="uGtN5vHFTZIPUSlZYyu9-12" target="uGtN5vHFTZIPUSlZYyu9-14">
          <mxGeometry relative="1" as="geometry" />
        </mxCell>
        <mxCell id="uGtN5vHFTZIPUSlZYyu9-19" value="" style="edgeStyle=orthogonalEdgeStyle;rounded=0;orthogonalLoop=1;jettySize=auto;html=1;" edge="1" parent="1" source="uGtN5vHFTZIPUSlZYyu9-12" target="uGtN5vHFTZIPUSlZYyu9-18">
          <mxGeometry relative="1" as="geometry" />
        </mxCell>
        <mxCell id="uGtN5vHFTZIPUSlZYyu9-12" value="&lt;font style=&quot;font-size: 20px&quot;&gt;i&amp;lt;b&lt;/font&gt;" style="rhombus;whiteSpace=wrap;html=1;rounded=0;" vertex="1" parent="1">
          <mxGeometry x="350" y="840" width="80" height="80" as="geometry" />
        </mxCell>
        <mxCell id="uGtN5vHFTZIPUSlZYyu9-17" value="" style="edgeStyle=orthogonalEdgeStyle;rounded=0;orthogonalLoop=1;jettySize=auto;html=1;" edge="1" parent="1" source="uGtN5vHFTZIPUSlZYyu9-14" target="uGtN5vHFTZIPUSlZYyu9-16">
          <mxGeometry relative="1" as="geometry" />
        </mxCell>
        <mxCell id="uGtN5vHFTZIPUSlZYyu9-14" value="&lt;font style=&quot;font-size: 20px&quot;&gt;Вывод(с)&lt;/font&gt;" style="whiteSpace=wrap;html=1;rounded=0;" vertex="1" parent="1">
          <mxGeometry x="330" y="1010" width="120" height="60" as="geometry" />
        </mxCell>
        <mxCell id="uGtN5vHFTZIPUSlZYyu9-16" value="&lt;font style=&quot;font-size: 20px&quot;&gt;Конец&lt;/font&gt;" style="ellipse;whiteSpace=wrap;html=1;rounded=0;" vertex="1" parent="1">
          <mxGeometry x="330" y="1150" width="120" height="60" as="geometry" />
        </mxCell>
        <mxCell id="uGtN5vHFTZIPUSlZYyu9-21" value="" style="edgeStyle=orthogonalEdgeStyle;rounded=0;orthogonalLoop=1;jettySize=auto;html=1;" edge="1" parent="1" source="uGtN5vHFTZIPUSlZYyu9-18">
          <mxGeometry relative="1" as="geometry">
            <mxPoint x="390" y="670" as="targetPoint" />
            <Array as="points">
              <mxPoint x="550" y="790" />
              <mxPoint x="550" y="790" />
            </Array>
          </mxGeometry>
        </mxCell>
        <mxCell id="uGtN5vHFTZIPUSlZYyu9-18" value="&lt;font style=&quot;font-size: 20px&quot;&gt;c=c*a&lt;/font&gt;" style="whiteSpace=wrap;html=1;rounded=0;" vertex="1" parent="1">
          <mxGeometry x="490" y="850" width="120" height="60" as="geometry" />
        </mxCell>
      </root>
    </mxGraphModel>
  </diagram>
</mxfile>
